<?xml version="1.0" encoding="utf-8"?>
<!-- Generator: Adobe Illustrator 19.2.1, SVG Export Plug-In . SVG Version: 6.00 Build 0)  -->
<svg version="1.1" id="Ebene_1" xmlns="http://www.w3.org/2000/svg" xmlns:xlink="http://www.w3.org/1999/xlink" x="0px" y="0px"
	 viewBox="0 0 512 512" style="enable-background:new 0 0 512 512;" xml:space="preserve">
<style type="text/css">
	.st0{fill:#FFFFFF;}
</style>
<path class="st0" d="M163,144H80c-6.6,0-12-5.4-12-12V80c0-6.6,5.4-12,12-12h83c6.6,0,12,5.4,12,12v52C175,138.6,169.6,144,163,144z
	"/>
<path class="st0" d="M163,244.3H80c-6.6,0-12-5.4-12-12v-52c0-6.6,5.4-12,12-12h83c6.6,0,12,5.4,12,12v52
	C175,238.9,169.6,244.3,163,244.3z"/>
<path class="st0" d="M163,344.6H80c-6.6,0-12-5.4-12-12v-52c0-6.6,5.4-12,12-12h83c6.6,0,12,5.4,12,12v52
	C175,339.2,169.6,344.6,163,344.6z"/>
<path class="st0" d="M163,444H80c-6.6,0-12-5.4-12-12v-52c0-6.6,5.4-12,12-12h83c6.6,0,12,5.4,12,12v52C175,438.6,169.6,444,163,444
	z"/>
<path class="st0" d="M432,144h-83c-6.6,0-12-5.4-12-12V80c0-6.6,5.4-12,12-12h83c6.6,0,12,5.4,12,12v52C444,138.6,438.6,144,432,144
	z"/>
<path class="st0" d="M432,244.3h-83c-6.6,0-12-5.4-12-12v-52c0-6.6,5.4-12,12-12h83c6.6,0,12,5.4,12,12v52
	C444,238.9,438.6,244.3,432,244.3z"/>
<path class="st0" d="M432,344.6h-83c-6.6,0-12-5.4-12-12v-52c0-6.6,5.4-12,12-12h83c6.6,0,12,5.4,12,12v52
	C444,339.2,438.6,344.6,432,344.6z"/>
<path class="st0" d="M296.5,144h-83c-6.6,0-12-5.4-12-12V80c0-6.6,5.4-12,12-12h83c6.6,0,12,5.4,12,12v52
	C308.5,138.6,303.1,144,296.5,144z"/>
<path class="st0" d="M296.5,244.3h-83c-6.6,0-12-5.4-12-12v-52c0-6.6,5.4-12,12-12h83c6.6,0,12,5.4,12,12v52
	C308.5,238.9,303.1,244.3,296.5,244.3z"/>
</svg>
