<svg viewBox="0 0 24 24" height="24" width="24" xmlns="http://www.w3.org/2000/svg" xml:space="preserve" style="fill-rule:evenodd;clip-rule:evenodd;stroke-linejoin:round;stroke-miterlimit:2"><path d="M17.673 15.644c0 1.624-.565 3.006-1.695 4.146-1.13 1.14-2.506 1.71-4.127 1.71s-2.998-.57-4.132-1.71c-1.133-1.14-1.7-2.522-1.7-4.146v-8.99c0-1.154.401-2.135 1.202-2.942C8.022 2.904 9 2.5 10.154 2.5s2.131.404 2.933 1.212c.801.807 1.202 1.788 1.202 2.942v8.51a2.38 2.38 0 0 1-.708 1.733 2.326 2.326 0 0 1-1.724.718 2.37 2.37 0 0 1-1.735-.713 2.355 2.355 0 0 1-.718-1.738V6.385h1.5v8.779c0 .268.09.493.27.677.18.183.404.275.672.275a.905.905 0 0 0 .672-.275.93.93 0 0 0 .271-.677v-8.52c-.011-.738-.267-1.364-.77-1.876C11.516 4.256 10.895 4 10.154 4c-.738 0-1.361.258-1.871.773a2.576 2.576 0 0 0-.764 1.881v8.99c-.01 1.209.408 2.237 1.254 3.085.846.847 1.873 1.271 3.082 1.271 1.19 0 2.203-.424 3.037-1.271.833-.848 1.261-1.876 1.281-3.085V6.385h1.5v9.259Z" style="fill-rule:nonzero" transform="translate(-.95 -1.895) scale(1.15789)"/><path style="fill:none;fill-rule:nonzero" d="M0 0h24v24H0z"/></svg>