<svg viewBox="0 0 512 512" height="512" width="512" xmlns="http://www.w3.org/2000/svg" xml:space="preserve" style="fill-rule:evenodd;clip-rule:evenodd;stroke-linejoin:round;stroke-miterlimit:2"><path d="M0 18v-1.575c0-.717.367-1.3 1.1-1.75C1.833 14.225 2.8 14 4 14c.217 0 .425.004.625.012.2.009.392.03.575.063-.233.35-.408.717-.525 1.1a4.084 4.084 0 0 0-.175 1.2V18H0Zm6 0v-1.625c0-.533.146-1.021.438-1.462.291-.442.704-.83 1.237-1.163.533-.333 1.171-.583 1.913-.75.741-.167 1.545-.25 2.412-.25.883 0 1.696.083 2.438.25.741.167 1.379.417 1.912.75.533.333.942.721 1.225 1.163.283.441.425.929.425 1.462V18H6Zm13.5 0v-1.625c0-.433-.054-.842-.162-1.225a3.926 3.926 0 0 0-.488-1.075c.183-.033.371-.054.563-.063.191-.008.387-.012.587-.012 1.2 0 2.167.221 2.9.663.733.441 1.1 1.029 1.1 1.762V18h-4.5ZM4 13c-.55 0-1.021-.196-1.412-.587A1.927 1.927 0 0 1 2 11c0-.567.196-1.042.588-1.425A1.946 1.946 0 0 1 4 9c.567 0 1.042.192 1.425.575.383.383.575.858.575 1.425a1.95 1.95 0 0 1-.575 1.413A1.915 1.915 0 0 1 4 13Zm16 0c-.55 0-1.021-.196-1.412-.587A1.927 1.927 0 0 1 18 11c0-.567.196-1.042.588-1.425A1.946 1.946 0 0 1 20 9c.567 0 1.042.192 1.425.575.383.383.575.858.575 1.425a1.95 1.95 0 0 1-.575 1.413A1.915 1.915 0 0 1 20 13Zm-8-1a2.894 2.894 0 0 1-2.125-.875A2.894 2.894 0 0 1 9 9c0-.85.292-1.562.875-2.137C10.458 6.287 11.167 6 12 6c.85 0 1.563.287 2.138.863C14.713 7.438 15 8.15 15 9c0 .833-.287 1.542-.862 2.125S12.85 12 12 12Z" style="fill-rule:nonzero" transform="scale(21.3333)"/></svg>