<svg xmlns="http://www.w3.org/2000/svg" viewBox="0 0 58 58" width="512" height="512"><g fill="#000"><path d="M54.319 37.839C54.762 35.918 55 33.96 55 32c0-9.095-4.631-17.377-12.389-22.153a1 1 0 1 0-1.049 1.703C48.724 15.96 53 23.604 53 32c0 1.726-.2 3.451-.573 5.147A6.992 6.992 0 0 0 51 37c-3.86 0-7 3.141-7 7s3.14 7 7 7 7-3.141 7-7a7.006 7.006 0 0 0-3.681-6.161zM38.171 54.182A23.867 23.867 0 0 1 29 56a24.047 24.047 0 0 1-17.017-7.092A6.974 6.974 0 0 0 14 44c0-3.859-3.14-7-7-7s-7 3.141-7 7 3.14 7 7 7a6.952 6.952 0 0 0 3.381-.875C15.26 55.136 21.994 58 29 58c3.435 0 6.778-.663 9.936-1.971.51-.211.753-.796.542-1.307a1.001 1.001 0 0 0-1.307-.54zM4 31.213a1 1 0 0 0 1.068-.927c.712-10.089 7.586-18.52 17.22-21.314C23.142 11.874 25.825 14 29 14c3.86 0 7-3.141 7-7s-3.14-7-7-7c-3.851 0-6.985 3.127-6.999 6.975C11.42 9.922 3.851 19.12 3.073 30.146A.999.999 0 0 0 4 31.213z"/></g></svg>