<?xml version="1.0" encoding="UTF-8"?>
<!-- Generator: Adobe Illustrator 17.0.0, SVG Export Plug-In . SVG Version: 6.00 Build 0)  -->
<svg id="Layer_1" width="15" height="15" enable-background="new 0 0 100 100" version="1.1" viewBox="0 0 100 100" xml:space="preserve" xmlns="http://www.w3.org/2000/svg" xmlns:cc="http://web.resource.org/cc/" xmlns:dc="http://purl.org/dc/elements/1.1/" xmlns:rdf="http://www.w3.org/1999/02/22-rdf-syntax-ns#">
		<path d="m91.645 8.355c-4.474-4.474-11.727-4.474-16.2 0l-13.5 13.501-3.727-3.727c-1.959-1.959-5.134-1.959-7.093 0s-1.959 5.134 0 7.093l3.727 3.727-41.51 41.508c-2.039 2.039-3.149 4.656-3.329 7.324-0.073 1.087-0.347 3.105-0.675 5.292-0.053 0.359-0.212 0.706-0.487 0.983l-3.105 3.106c-0.994 0.994-0.994 2.606 0 3.6l3.493 3.493c0.994 0.994 2.606 0.994 3.6 0l3.106-3.105c0.277-0.275 0.622-0.433 0.981-0.486 2.187-0.329 4.205-0.602 5.293-0.675 2.668-0.18 5.285-1.29 7.325-3.33l41.508-41.508 3.727 3.727c1.959 1.959 5.134 1.959 7.093 0s1.959-5.134 0-7.093l-12.365-12.366 9.697 7.577 12.44-12.441c4.475-4.473 4.474-11.726 1e-3 -16.2zm-26.594 34.394l-20.53 20.53c-0.994 0.994-2.606 0.994-3.6 0l-3.27-3.27c-0.994-0.993-2.605-0.993-3.599 1e-3l-0.616 0.616-2e-3 -2e-3 -14.728 14.727c-0.337 0.337-0.819 0.401-1.076 0.143s-0.194-0.74 0.143-1.076l23.841-23.841 4e-3 4e-3 15.633-15.633c0.994-0.994 2.606-0.994 3.6 0l4.2 4.201c0.994 0.994 0.994 2.606 0 3.6z" fill="#fff"/>
<metadata><rdf:RDF><cc:Work><dc:format>image/svg+xml</dc:format><dc:type rdf:resource="http://purl.org/dc/dcmitype/StillImage"/><cc:license rdf:resource="http://creativecommons.org/licenses/publicdomain/"/><dc:publisher><cc:Agent rdf:about="http://openclipart.org/"><dc:title>Openclipart</dc:title></cc:Agent></dc:publisher></cc:Work><cc:License rdf:about="http://creativecommons.org/licenses/publicdomain/"><cc:permits rdf:resource="http://creativecommons.org/ns#Reproduction"/><cc:permits rdf:resource="http://creativecommons.org/ns#Distribution"/><cc:permits rdf:resource="http://creativecommons.org/ns#DerivativeWorks"/></cc:License></rdf:RDF></metadata></svg>
