<svg xmlns="http://www.w3.org/2000/svg" width="15" height="15" viewBox="0 0 100 100"><path d="M91.645 8.355c-4.474-4.474-11.727-4.474-16.2 0l-13.5 13.501-3.727-3.727a5.015 5.015 0 1 0-7.093 7.093l3.727 3.727-41.51 41.508a11.411 11.411 0 0 0-3.329 7.324c-.073 1.087-.347 3.105-.675 5.292a1.748 1.748 0 0 1-.487.983l-3.105 3.106a2.546 2.546 0 0 0 0 3.6l3.493 3.493a2.546 2.546 0 0 0 3.6 0l3.106-3.105c.277-.275.622-.433.981-.486 2.187-.329 4.205-.602 5.293-.675a11.412 11.412 0 0 0 7.325-3.33l41.508-41.508 3.727 3.727a5.015 5.015 0 1 0 7.093-7.093L69.507 29.419l9.697 7.577 12.44-12.441c4.475-4.473 4.474-11.726.001-16.2zM65.051 42.749l-20.53 20.53a2.546 2.546 0 0 1-3.6 0l-3.27-3.27a2.545 2.545 0 0 0-3.599.001l-.616.616-.002-.002-14.728 14.727c-.337.337-.819.401-1.076.143s-.194-.74.143-1.076l23.841-23.841.004.004 15.633-15.633a2.546 2.546 0 0 1 3.6 0l4.2 4.201a2.546 2.546 0 0 1 0 3.6z"/></svg>