<svg viewBox="0 0 15 15" height="15" width="15" xmlns="http://www.w3.org/2000/svg" xml:space="preserve" style="fill-rule:evenodd;clip-rule:evenodd;stroke-linejoin:round;stroke-miterlimit:2"><path d="M3.5 20.5v-4.058l8.864-8.863-1.633-1.593 1.084-1.053 2.112 2.102 3.283-3.293a.75.75 0 0 1 .259-.166.865.865 0 0 1 .628 0c.094.04.185.096.272.166l1.889 1.899c.07.08.126.168.166.262a.79.79 0 0 1 .061.312.866.866 0 0 1-.061.316.75.75 0 0 1-.166.259l-3.287 3.287 2.112 2.152-1.069 1.069-1.612-1.642L7.558 20.5H3.5ZM5 19h1.969l8.368-8.417-1.92-1.92L5 17.031V19Z" style="fill:#fff;fill-rule:nonzero" transform="translate(-1.982 -2.094) scale(.79484)"/></svg>