<svg xmlns="http://www.w3.org/2000/svg" viewBox="0 0 512 512"><path d="M432.3 448.1h-348c-13.2 0-24-10.8-24-24V264.6c0-13.2 10.8-24 24-24h348c13.2 0 24 10.8 24 24v159.5c0 13.2-10.8 24-24 24zM380.4 89.8H127.8c-7.7 0-14-6.3-14-14v-6.3c0-7.7 6.3-14 14-14h252.6c7.7 0 14 6.3 14 14v6.3c0 7.7-6.3 14-14 14zm19.4 61.8H110.6c-7.7 0-14-6.3-14-14v-6.3c0-7.7 6.3-14 14-14h289.2c7.7 0 14 6.3 14 14v6.3c0 7.7-6.3 14-14 14zm21.6 61.4H94.6c-7.7 0-14-6.3-14-14v-6.3c0-7.7 6.3-14 14-14h326.8c7.7 0 14 6.3 14 14v6.3c0 7.7-6.3 14-14 14z"/></svg>
