<?xml version="1.0" encoding="utf-8"?>
<!-- Generator: Adobe Illustrator 19.2.1, SVG Export Plug-In . SVG Version: 6.00 Build 0)  -->
<svg version="1.1" xmlns="http://www.w3.org/2000/svg" xmlns:xlink="http://www.w3.org/1999/xlink" x="0px" y="0px"
	 viewBox="0 0 512 512" style="enable-background:new 0 0 512 512;" xml:space="preserve">
<style type="text/css">
	.st0{display:none;}
	.st1{display:inline;}
	.st2{fill:#0071BC;}
	.st3{display:inline;fill:#FFFFFF;}
	.st4{fill:#FFFFFF;}
</style>
<g id="Ebene_2" class="st0">
	<g class="st1">
		<path class="st2" d="M1,444C1,318.7,1,193.3,1,68c1.3-5.1,2.3-10.3,3.9-15.4c10.6-32.5,39-52.5,74.5-52.5c118.4,0,236.8,0,355.2,0
			c2.3,0,4.7,0,7,0.2c29,2.6,50.7,16.4,63.5,42.7c3.8,7.8,5.3,16.6,7.9,25c0,125.3,0,250.7,0,376c-0.4,1.1-0.9,2.1-1,3.2
			c-4.4,26.1-18.2,45.4-42,56.9c-7.8,3.7-16.6,5.3-24.9,7.9c-125.3,0-250.7,0-376,0c-1.1-0.4-2.1-0.9-3.2-1
			c-26.1-4.4-45.4-18.2-56.9-42C5.2,461.2,3.6,452.3,1,444z"/>
	</g>
</g>
<g id="Ebene_4" class="st0">
	<rect x="1" y="-18.8" class="st1" width="511" height="530.8"/>
</g>
<g id="Ebene_1" class="st0">
	<path class="st3" d="M164,144H81c-6.6,0-12-5.4-12-12V80c0-6.6,5.4-12,12-12h83c6.6,0,12,5.4,12,12v52C176,138.6,170.6,144,164,144
		z"/>
	<path class="st3" d="M164,244.3H81c-6.6,0-12-5.4-12-12v-52c0-6.6,5.4-12,12-12h83c6.6,0,12,5.4,12,12v52
		C176,238.9,170.6,244.3,164,244.3z"/>
	<path class="st3" d="M164,344.6H81c-6.6,0-12-5.4-12-12v-52c0-6.6,5.4-12,12-12h83c6.6,0,12,5.4,12,12v52
		C176,339.2,170.6,344.6,164,344.6z"/>
	<path class="st3" d="M164,444H81c-6.6,0-12-5.4-12-12v-52c0-6.6,5.4-12,12-12h83c6.6,0,12,5.4,12,12v52
		C176,438.6,170.6,444,164,444z"/>
	<path class="st3" d="M433,144h-83c-6.6,0-12-5.4-12-12V80c0-6.6,5.4-12,12-12h83c6.6,0,12,5.4,12,12v52
		C445,138.6,439.6,144,433,144z"/>
	<path class="st3" d="M433,244.3h-83c-6.6,0-12-5.4-12-12v-52c0-6.6,5.4-12,12-12h83c6.6,0,12,5.4,12,12v52
		C445,238.9,439.6,244.3,433,244.3z"/>
	<path class="st3" d="M433,344.6h-83c-6.6,0-12-5.4-12-12v-52c0-6.6,5.4-12,12-12h83c6.6,0,12,5.4,12,12v52
		C445,339.2,439.6,344.6,433,344.6z"/>
	<path class="st3" d="M297.5,144h-83c-6.6,0-12-5.4-12-12V80c0-6.6,5.4-12,12-12h83c6.6,0,12,5.4,12,12v52
		C309.5,138.6,304.1,144,297.5,144z"/>
	<path class="st3" d="M297.5,244.3h-83c-6.6,0-12-5.4-12-12v-52c0-6.6,5.4-12,12-12h83c6.6,0,12,5.4,12,12v52
		C309.5,238.9,304.1,244.3,297.5,244.3z"/>
</g>
<g id="Ebene_3">
	<path class="st4" d="M432.3,448.1h-348c-13.2,0-24-10.8-24-24V264.6c0-13.2,10.8-24,24-24h348c13.2,0,24,10.8,24,24v159.5
		C456.3,437.3,445.5,448.1,432.3,448.1z"/>
	<path class="st4" d="M380.4,89.8H127.8c-7.7,0-14-6.3-14-14v-6.3c0-7.7,6.3-14,14-14h252.6c7.7,0,14,6.3,14,14v6.3
		C394.4,83.5,388.1,89.8,380.4,89.8z"/>
	<path class="st4" d="M399.8,151.6H110.6c-7.7,0-14-6.3-14-14v-6.3c0-7.7,6.3-14,14-14h289.2c7.7,0,14,6.3,14,14v6.3
		C413.8,145.3,407.5,151.6,399.8,151.6z"/>
	<path class="st4" d="M421.4,213H94.6c-7.7,0-14-6.3-14-14v-6.3c0-7.7,6.3-14,14-14h326.8c7.7,0,14,6.3,14,14v6.3
		C435.4,206.7,429.1,213,421.4,213z"/>
</g>
</svg>
