<svg xmlns="http://www.w3.org/2000/svg" viewBox="0 0 512 512"><style>.st0{display:none}.st1{display:inline}.st2{fill:#0071bc}.st3{display:inline}.st3,.st4{fill:#fff}</style><path class="st0 st1 st2" d="M1 444V68c1.3-5.1 2.3-10.3 3.9-15.4C15.5 20.1 43.9.1 79.4.1h355.2c2.3 0 4.7 0 7 .2 29 2.6 50.7 16.4 63.5 42.7 3.8 7.8 5.3 16.6 7.9 25v376c-.4 1.1-.9 2.1-1 3.2-4.4 26.1-18.2 45.4-42 56.9-7.8 3.7-16.6 5.3-24.9 7.9h-376c-1.1-.4-2.1-.9-3.2-1-26.1-4.4-45.4-18.2-56.9-42-3.8-7.8-5.4-16.7-8-25z" id="Ebene_2"/><path class="st0 st1" d="M1-18.8h511V512H1z" id="Ebene_4"/><path class="st0 st3" d="M164 144H81c-6.6 0-12-5.4-12-12V80c0-6.6 5.4-12 12-12h83c6.6 0 12 5.4 12 12v52c0 6.6-5.4 12-12 12zm0 100.3H81c-6.6 0-12-5.4-12-12v-52c0-6.6 5.4-12 12-12h83c6.6 0 12 5.4 12 12v52c0 6.6-5.4 12-12 12zm0 100.3H81c-6.6 0-12-5.4-12-12v-52c0-6.6 5.4-12 12-12h83c6.6 0 12 5.4 12 12v52c0 6.6-5.4 12-12 12zm0 99.4H81c-6.6 0-12-5.4-12-12v-52c0-6.6 5.4-12 12-12h83c6.6 0 12 5.4 12 12v52c0 6.6-5.4 12-12 12zm269-300h-83c-6.6 0-12-5.4-12-12V80c0-6.6 5.4-12 12-12h83c6.6 0 12 5.4 12 12v52c0 6.6-5.4 12-12 12zm0 100.3h-83c-6.6 0-12-5.4-12-12v-52c0-6.6 5.4-12 12-12h83c6.6 0 12 5.4 12 12v52c0 6.6-5.4 12-12 12zm0 100.3h-83c-6.6 0-12-5.4-12-12v-52c0-6.6 5.4-12 12-12h83c6.6 0 12 5.4 12 12v52c0 6.6-5.4 12-12 12zM297.5 144h-83c-6.6 0-12-5.4-12-12V80c0-6.6 5.4-12 12-12h83c6.6 0 12 5.4 12 12v52c0 6.6-5.4 12-12 12zm0 100.3h-83c-6.6 0-12-5.4-12-12v-52c0-6.6 5.4-12 12-12h83c6.6 0 12 5.4 12 12v52c0 6.6-5.4 12-12 12z" id="Ebene_1"/><path class="st4" d="M432.3 448.1h-348c-13.2 0-24-10.8-24-24V264.6c0-13.2 10.8-24 24-24h348c13.2 0 24 10.8 24 24v159.5c0 13.2-10.8 24-24 24zM380.4 89.8H127.8c-7.7 0-14-6.3-14-14v-6.3c0-7.7 6.3-14 14-14h252.6c7.7 0 14 6.3 14 14v6.3c0 7.7-6.3 14-14 14zm19.4 61.8H110.6c-7.7 0-14-6.3-14-14v-6.3c0-7.7 6.3-14 14-14h289.2c7.7 0 14 6.3 14 14v6.3c0 7.7-6.3 14-14 14zm21.6 61.4H94.6c-7.7 0-14-6.3-14-14v-6.3c0-7.7 6.3-14 14-14h326.8c7.7 0 14 6.3 14 14v6.3c0 7.7-6.3 14-14 14z" id="Ebene_3"/></svg>