<?xml version="1.0" encoding="UTF-8" standalone="no"?>
<!DOCTYPE svg PUBLIC "-//W3C//DTD SVG 1.1//EN"
 "http://www.w3.org/Graphics/SVG/1.1/DTD/svg11.dtd">
<!-- Generated by graphviz version 2.40.1 (20161225.0304)
 -->
<!-- Title: G Pages: 1 -->
<svg width="417pt" height="830pt"
 viewBox="0.00 0.00 417.01 830.00" xmlns="http://www.w3.org/2000/svg" xmlns:xlink="http://www.w3.org/1999/xlink">
<g id="graph0" class="graph" transform="scale(1 1) rotate(0) translate(4 826)">
<title>G</title>
<polygon fill="#ffffff" stroke="transparent" points="-4,4 -4,-826 413.012,-826 413.012,4 -4,4"/>
<!-- A0 -->
<g id="node1" class="node">
<title>A0</title>
<polygon fill="#fff8dc" stroke="#000000" points="165.909,-822 70.091,-822 70.091,-766 171.909,-766 171.909,-816 165.909,-822"/>
<polyline fill="none" stroke="#000000" points="165.909,-822 165.909,-816 "/>
<polyline fill="none" stroke="#000000" points="171.909,-816 165.909,-816 "/>
<text text-anchor="middle" x="121" y="-809" font-family="Helvetica,sans-Serif" font-size="10.00" fill="#000000">Classes used on</text>
<text text-anchor="middle" x="121" y="-797" font-family="Helvetica,sans-Serif" font-size="10.00" fill="#000000">board import.</text>
<text text-anchor="middle" x="121" y="-785" font-family="Helvetica,sans-Serif" font-size="10.00" fill="#000000">Methods just to</text>
<text text-anchor="middle" x="121" y="-773" font-family="Helvetica,sans-Serif" font-size="10.00" fill="#000000">illustrate.</text>
</g>
<!-- A1 -->
<g id="node2" class="node">
<title>A1</title>
<polygon fill="none" stroke="#000000" points="108.7773,-680 23.2227,-680 23.2227,-644 108.7773,-644 108.7773,-680"/>
<text text-anchor="middle" x="66" y="-659" font-family="Helvetica,sans-Serif" font-size="10.00" fill="#000000">ApiController</text>
</g>
<!-- A2 -->
<g id="node3" class="node">
<title>A2</title>
<polygon fill="none" stroke="#000000" points="0,-514 0,-546 132,-546 132,-514 0,-514"/>
<text text-anchor="start" x="9.607" y="-527" font-family="Helvetica,sans-Serif" font-size="10.00" fill="#000000">BoardImportApiController</text>
<polygon fill="none" stroke="#000000" points="0,-458 0,-514 132,-514 132,-458 0,-458"/>
<text text-anchor="start" x="45.8645" y="-495" font-family="Helvetica,sans-Serif" font-size="10.00" fill="#000000">+import()</text>
<text text-anchor="start" x="16.1335" y="-483" font-family="Helvetica,sans-Serif" font-size="10.00" fill="#000000">+getAllowedSystems()</text>
<text text-anchor="start" x="20.0185" y="-471" font-family="Helvetica,sans-Serif" font-size="10.00" fill="#000000">+getConfigSchema()</text>
</g>
<!-- A1&#45;&gt;A2 -->
<g id="edge1" class="edge">
<title>A1&#45;&gt;A2</title>
<path fill="none" stroke="#000000" d="M66,-633.6693C66,-609.4424 66,-574.1663 66,-546.2238"/>
<polygon fill="#000000" stroke="#000000" points="66,-643.957 61.5001,-633.9569 66,-638.957 66.0001,-633.957 66.0001,-633.957 66.0001,-633.957 66,-638.957 70.5001,-633.957 66,-643.957 66,-643.957"/>
</g>
<!-- A3 -->
<g id="node4" class="node">
<title>A3</title>
<polygon fill="none" stroke="#000000" points="92,-364 92,-396 200,-396 200,-364 92,-364"/>
<text text-anchor="start" x="101.828" y="-377" font-family="Helvetica,sans-Serif" font-size="10.00" fill="#000000">BoardImportService</text>
<polygon fill="none" stroke="#000000" points="92,-284 92,-364 200,-364 200,-284 92,-284"/>
<text text-anchor="start" x="125.8645" y="-345" font-family="Helvetica,sans-Serif" font-size="10.00" fill="#000000">+import()</text>
<text text-anchor="start" x="118.9105" y="-333" font-family="Helvetica,sans-Serif" font-size="10.00" fill="#000000">+bootstrap()</text>
<text text-anchor="start" x="105.857" y="-321" font-family="Helvetica,sans-Serif" font-size="10.00" fill="#000000">+validateSystem()</text>
<text text-anchor="start" x="108.218" y="-309" font-family="Helvetica,sans-Serif" font-size="10.00" fill="#000000">#validateConfig()</text>
<text text-anchor="start" x="112.107" y="-297" font-family="Helvetica,sans-Serif" font-size="10.00" fill="#000000">#validateData()</text>
</g>
<!-- A2&#45;&gt;A3 -->
<g id="edge2" class="edge">
<title>A2&#45;&gt;A3</title>
<path fill="none" stroke="#000000" stroke-dasharray="5,2" d="M87.8604,-457.7328C95.8577,-441.5382 105.0823,-422.8583 113.7939,-405.2174"/>
<polygon fill="#000000" stroke="#000000" points="118.2935,-396.1057 117.9004,-407.0646 116.0795,-400.5889 113.8656,-405.072 113.8656,-405.072 113.8656,-405.072 116.0795,-400.5889 109.8308,-403.0795 118.2935,-396.1057 118.2935,-396.1057"/>
<text text-anchor="middle" x="88.3076" y="-434.7378" font-family="Helvetica,sans-Serif" font-size="10.00" fill="#000000">uses</text>
</g>
<!-- A7 -->
<g id="node8" class="node">
<title>A7</title>
<polygon fill="none" stroke="#000000" points="37,-196 37,-228 129,-228 129,-196 37,-196"/>
<text text-anchor="start" x="46.612" y="-209" font-family="Helvetica,sans-Serif" font-size="10.00" fill="#000000">TrelloApiService</text>
<polygon fill="none" stroke="#000000" points="37,-164 37,-196 129,-196 129,-164 37,-164"/>
<text text-anchor="start" x="53.9655" y="-177" font-family="Helvetica,sans-Serif" font-size="10.00" fill="#000000">+name:string</text>
</g>
<!-- A3&#45;&gt;A7 -->
<g id="edge6" class="edge">
<title>A3&#45;&gt;A7</title>
<path fill="none" stroke="#000000" stroke-dasharray="5,2" d="M114.8609,-283.9135C107.8316,-268.5143 100.7854,-252.0928 95.0404,-237.6613"/>
<polygon fill="#000000" stroke="#000000" points="91.2872,-228.0253 99.1098,-235.7102 93.1019,-232.6844 94.9167,-237.3434 94.9167,-237.3434 94.9167,-237.3434 93.1019,-232.6844 90.7235,-238.9767 91.2872,-228.0253 91.2872,-228.0253"/>
<text text-anchor="middle" x="99.6759" y="-267.8975" font-family="Helvetica,sans-Serif" font-size="10.00" fill="#000000">uses</text>
</g>
<!-- A9 -->
<g id="node10" class="node">
<title>A9</title>
<polygon fill="none" stroke="#000000" points="148,-202 148,-234 273,-234 273,-202 148,-202"/>
<text text-anchor="start" x="170.7765" y="-215" font-family="Helvetica,sans-Serif" font-size="10.00" fill="#000000">TrelloJsonService</text>
<polygon fill="none" stroke="#000000" points="148,-158 148,-202 273,-202 273,-158 148,-158"/>
<text text-anchor="start" x="181.4655" y="-183" font-family="Helvetica,sans-Serif" font-size="10.00" fill="#000000">+name:string</text>
<text text-anchor="start" x="157.981" y="-171" font-family="Helvetica,sans-Serif" font-size="10.00" fill="#000000">#needValidateData:true</text>
</g>
<!-- A3&#45;&gt;A9 -->
<g id="edge9" class="edge">
<title>A3&#45;&gt;A9</title>
<path fill="none" stroke="#000000" stroke-dasharray="5,2" d="M164.3261,-283.9135C170.0039,-270.5688 176.3462,-256.4563 182.4816,-243.5365"/>
<polygon fill="#000000" stroke="#000000" points="186.9002,-234.3677 186.6126,-245.3298 184.7295,-238.872 182.5588,-243.3762 182.5588,-243.3762 182.5588,-243.3762 184.7295,-238.872 178.505,-241.4226 186.9002,-234.3677 186.9002,-234.3677"/>
<text text-anchor="middle" x="163.6874" y="-260.9237" font-family="Helvetica,sans-Serif" font-size="10.00" fill="#000000">uses</text>
</g>
<!-- A10 -->
<g id="node11" class="node">
<title>A10</title>
<polygon fill="#fff8dc" stroke="#000000" points="317.7872,-362 218.2128,-362 218.2128,-318 323.7872,-318 323.7872,-356 317.7872,-362"/>
<polyline fill="none" stroke="#000000" points="317.7872,-362 317.7872,-356 "/>
<polyline fill="none" stroke="#000000" points="323.7872,-356 317.7872,-356 "/>
<text text-anchor="middle" x="271" y="-349" font-family="Helvetica,sans-Serif" font-size="10.00" fill="#000000">validateSystem is</text>
<text text-anchor="middle" x="271" y="-337" font-family="Helvetica,sans-Serif" font-size="10.00" fill="#000000">public because is</text>
<text text-anchor="middle" x="271" y="-325" font-family="Helvetica,sans-Serif" font-size="10.00" fill="#000000">used on Api.</text>
</g>
<!-- A3&#45;&gt;A10 -->
<g id="edge11" class="edge">
<title>A3&#45;&gt;A10</title>
<path fill="none" stroke="#000000" stroke-dasharray="5,2" d="M200.1992,-340C206.1915,-340 212.1837,-340 218.176,-340"/>
</g>
<!-- A4 -->
<g id="node5" class="node">
<title>A4</title>
<polygon fill="none" stroke="#000000" points="264.1131,-812 189.8869,-812 189.8869,-776 264.1131,-776 264.1131,-812"/>
<text text-anchor="middle" x="227" y="-791" font-family="Helvetica,sans-Serif" font-size="10.00" fill="#000000">Command</text>
</g>
<!-- A5 -->
<g id="node6" class="node">
<title>A5</title>
<polygon fill="none" stroke="#000000" points="148,-684 148,-716 307,-716 307,-684 148,-684"/>
<text text-anchor="start" x="199.9955" y="-697" font-family="Helvetica,sans-Serif" font-size="10.00" fill="#000000">BoardImport</text>
<polygon fill="none" stroke="#000000" points="148,-652 148,-684 307,-684 307,-652 148,-652"/>
<text text-anchor="start" x="157.907" y="-665" font-family="Helvetica,sans-Serif" font-size="10.00" fill="#000000">+boardImportCommandService</text>
<polygon fill="none" stroke="#000000" points="148,-608 148,-652 307,-652 307,-608 148,-608"/>
<text text-anchor="start" x="200.8305" y="-633" font-family="Helvetica,sans-Serif" font-size="10.00" fill="#000000">#configure()</text>
<text text-anchor="start" x="177.76" y="-621" font-family="Helvetica,sans-Serif" font-size="10.00" fill="#000000">#execute(input,output)</text>
</g>
<!-- A4&#45;&gt;A5 -->
<g id="edge3" class="edge">
<title>A4&#45;&gt;A5</title>
<path fill="none" stroke="#000000" d="M227,-765.6356C227,-751.1554 227,-733.0451 227,-716.0324"/>
<polygon fill="#000000" stroke="#000000" points="227,-775.9227 222.5001,-765.9227 227,-770.9227 227.0001,-765.9227 227.0001,-765.9227 227.0001,-765.9227 227,-770.9227 231.5001,-765.9228 227,-775.9227 227,-775.9227"/>
</g>
<!-- A6 -->
<g id="node7" class="node">
<title>A6</title>
<polygon fill="none" stroke="#000000" points="150,-526 150,-558 304,-558 304,-526 150,-526"/>
<text text-anchor="start" x="159.7715" y="-539" font-family="Helvetica,sans-Serif" font-size="10.00" fill="#000000">BoardImportCommandService</text>
<polygon fill="none" stroke="#000000" points="150,-446 150,-526 304,-526 304,-446 150,-446"/>
<text text-anchor="start" x="199.9105" y="-507" font-family="Helvetica,sans-Serif" font-size="10.00" fill="#000000">+bootstrap()</text>
<text text-anchor="start" x="206.8645" y="-495" font-family="Helvetica,sans-Serif" font-size="10.00" fill="#000000">+import()</text>
<text text-anchor="start" x="186.857" y="-483" font-family="Helvetica,sans-Serif" font-size="10.00" fill="#000000">+validateSystem()</text>
<text text-anchor="start" x="189.218" y="-471" font-family="Helvetica,sans-Serif" font-size="10.00" fill="#000000">#validateConfig()</text>
<text text-anchor="start" x="193.107" y="-459" font-family="Helvetica,sans-Serif" font-size="10.00" fill="#000000">#validateData()</text>
</g>
<!-- A5&#45;&gt;A6 -->
<g id="edge4" class="edge">
<title>A5&#45;&gt;A6</title>
<path fill="none" stroke="#000000" stroke-dasharray="5,2" d="M227,-607.8313C227,-595.0442 227,-581.2707 227,-568.0248"/>
<polygon fill="#000000" stroke="#000000" points="227,-558.0234 231.5001,-568.0234 227,-563.0234 227.0001,-568.0234 227.0001,-568.0234 227.0001,-568.0234 227,-563.0234 222.5001,-568.0235 227,-558.0234 227,-558.0234"/>
<text text-anchor="middle" x="218.5476" y="-586.7051" font-family="Helvetica,sans-Serif" font-size="10.00" fill="#000000">uses</text>
</g>
<!-- A6&#45;&gt;A3 -->
<g id="edge5" class="edge">
<title>A6&#45;&gt;A3</title>
<path fill="none" stroke="#000000" d="M198.8975,-445.7949C192.3634,-432.7268 185.3528,-418.7057 178.6417,-405.2834"/>
<polygon fill="#000000" stroke="#000000" points="174.0529,-396.1057 182.55,-403.0375 176.289,-400.5779 178.5251,-405.05 178.5251,-405.05 178.5251,-405.05 176.289,-400.5779 174.5001,-407.0625 174.0529,-396.1057 174.0529,-396.1057"/>
</g>
<!-- A7&#45;&gt;A3 -->
<g id="edge7" class="edge">
<title>A7&#45;&gt;A3</title>
<path fill="none" stroke="#000000" stroke-dasharray="5,2" d="M102.735,-228.0253C109.5347,-241.763 117.1224,-258.3431 124.0627,-274.4849"/>
<polygon fill="#000000" stroke="#000000" points="128.0634,-283.9135 120.0148,-276.4657 126.1104,-279.3107 124.1573,-274.7079 124.1573,-274.7079 124.1573,-274.7079 126.1104,-279.3107 128.2998,-272.9502 128.0634,-283.9135 128.0634,-283.9135"/>
<text text-anchor="middle" x="118.307" y="-237.5757" font-family="Helvetica,sans-Serif" font-size="10.00" fill="#000000">uses</text>
</g>
<!-- A8 -->
<g id="node9" class="node">
<title>A8</title>
<polygon fill="none" stroke="#000000" points="80,-64 80,-108 213,-108 213,-64 80,-64"/>
<text text-anchor="start" x="117.04" y="-89" font-family="Helvetica,sans-Serif" font-size="10.00" fill="#000000">&lt;&lt;abstract&gt;&gt;</text>
<text text-anchor="start" x="98.9935" y="-77" font-family="Helvetica,sans-Serif" font-size="10.00" fill="#000000">ABoardImportService</text>
<polygon fill="none" stroke="#000000" points="80,-32 80,-64 213,-64 213,-32 80,-32"/>
<text text-anchor="start" x="92.036" y="-45" font-family="Helvetica,sans-Serif" font-size="10.00" fill="#000000">#needValidateData:false</text>
<polygon fill="none" stroke="#000000" points="80,0 80,-32 213,-32 213,0 80,0"/>
<text text-anchor="start" x="89.677" y="-13" font-family="Helvetica,sans-Serif" font-size="10.00" fill="#000000">+needValidateData():bool</text>
</g>
<!-- A7&#45;&gt;A8 -->
<g id="edge8" class="edge">
<title>A7&#45;&gt;A8</title>
<path fill="none" stroke="#000000" stroke-dasharray="5,2" d="M97.2957,-163.778C103.3956,-150.029 110.7371,-133.4813 117.8485,-117.4527"/>
<polygon fill="none" stroke="#000000" points="121.1416,-118.6605 121.9978,-108.1003 114.743,-115.8216 121.1416,-118.6605"/>
<text text-anchor="middle" x="96.9205" y="-140.7815" font-family="Helvetica,sans-Serif" font-size="10.00" fill="#000000">implements</text>
</g>
<!-- A9&#45;&gt;A3 -->
<g id="edge10" class="edge">
<title>A9&#45;&gt;A3</title>
<path fill="none" stroke="#000000" stroke-dasharray="5,2" d="M198.9952,-234.3677C194.0646,-246.7117 188.0483,-260.7568 181.8434,-274.4849"/>
<polygon fill="#000000" stroke="#000000" points="177.5286,-283.9135 177.598,-272.9478 179.6093,-279.367 181.6899,-274.8204 181.6899,-274.8204 181.6899,-274.8204 179.6093,-279.367 185.7818,-276.693 177.5286,-283.9135 177.5286,-283.9135"/>
<text text-anchor="middle" x="200.0654" y="-251.3391" font-family="Helvetica,sans-Serif" font-size="10.00" fill="#000000">uses</text>
</g>
<!-- A9&#45;&gt;A8 -->
<g id="edge13" class="edge">
<title>A9&#45;&gt;A8</title>
<path fill="none" stroke="#000000" stroke-dasharray="5,2" d="M192.8492,-157.9466C187.2535,-145.5313 180.8796,-131.389 174.6742,-117.6209"/>
<polygon fill="none" stroke="#000000" points="177.7167,-115.8534 170.4168,-108.1747 171.3349,-118.7297 177.7167,-115.8534"/>
<text text-anchor="middle" x="177.6953" y="-141.8944" font-family="Helvetica,sans-Serif" font-size="10.00" fill="#000000">implements</text>
</g>
<!-- A11 -->
<g id="node12" class="node">
<title>A11</title>
<polygon fill="#fff8dc" stroke="#000000" points="403.024,-224 290.976,-224 290.976,-168 409.024,-168 409.024,-218 403.024,-224"/>
<polyline fill="none" stroke="#000000" points="403.024,-224 403.024,-218 "/>
<polyline fill="none" stroke="#000000" points="409.024,-218 403.024,-218 "/>
<text text-anchor="middle" x="350" y="-211" font-family="Helvetica,sans-Serif" font-size="10.00" fill="#000000">To create an import</text>
<text text-anchor="middle" x="350" y="-199" font-family="Helvetica,sans-Serif" font-size="10.00" fill="#000000">to another system,</text>
<text text-anchor="middle" x="350" y="-187" font-family="Helvetica,sans-Serif" font-size="10.00" fill="#000000">create another class</text>
<text text-anchor="middle" x="350" y="-175" font-family="Helvetica,sans-Serif" font-size="10.00" fill="#000000">similar to this.</text>
</g>
<!-- A9&#45;&gt;A11 -->
<g id="edge12" class="edge">
<title>A9&#45;&gt;A11</title>
<path fill="none" stroke="#000000" stroke-dasharray="5,2" d="M272.6172,-196C278.6627,-196 284.7083,-196 290.7538,-196"/>
</g>
</g>
</svg>
